<svg xmlns="http://www.w3.org/2000/svg" width="32" height="px" viewBox="0 0 32 32"><path style="stroke:none;fill-rule:nonzero;fill:#fff;fill-opacity:1" d="M4.8 0h22.4A4.8 4.8 0 0 1 32 4.8v22.4a4.8 4.8 0 0 1-4.8 4.8H4.8A4.8 4.8 0 0 1 0 27.2V4.8A4.8 4.8 0 0 1 4.8 0zm0 0"/><path style="stroke:none;fill-rule:nonzero;fill:#c3002f;fill-opacity:1" d="M16 4.063v2.625l6.938 15.562h-2.625l-1.375-3.438H16v9.125l9.438-5.25L27.125 8zm0 7.687v4.875h2.063zm0 0"/><path style="stroke:none;fill-rule:nonzero;fill:#dd0031;fill-opacity:1" d="M16 4.063v2.625L9.062 22.25h2.626l1.374-3.438H16v9.125l-9.438-5.25L4.875 8zm0 7.687v4.875h-2.063zm0 0"/></svg>