<svg xmlns="http://www.w3.org/2000/svg" width="32" height="px" viewBox="0 0 32 32"><path style="stroke:none;fill-rule:nonzero;fill:#563d7c;fill-opacity:1" d="M0 27.875A4.126 4.126 0 0 0 4.125 32h23.75A4.126 4.126 0 0 0 32 27.875V4.125A4.126 4.126 0 0 0 27.875 0H4.125A4.126 4.126 0 0 0 0 4.125zm0 0"/><path style="stroke:none;fill-rule:nonzero;fill:#fff;fill-opacity:1" d="M13.27 14.156V9.625h3.988c.379 0 .746.031 1.101.094.352.062.664.176.934.34.273.16.488.386.652.675.164.29.242.66.242 1.114 0 .816-.242 1.402-.73 1.765-.488.36-1.113.543-1.871.543zM9.008 6.312v19.375h9.39c.868 0 1.715-.109 2.54-.324a6.882 6.882 0 0 0 2.195-1.004 4.994 4.994 0 0 0 1.535-1.75c.379-.714.57-1.562.57-2.539 0-1.21-.297-2.246-.883-3.105-.59-.86-1.48-1.461-2.671-1.805.867-.418 1.523-.95 1.964-1.601.446-.653.665-1.465.665-2.442 0-.906-.149-1.664-.446-2.281a3.758 3.758 0 0 0-1.262-1.48c-.543-.368-1.195-.637-1.953-.797a11.994 11.994 0 0 0-2.523-.247zm4.262 16.063v-5.316h4.64c.922 0 1.664.21 2.227.636.558.426.84 1.137.84 2.13 0 .507-.086.925-.258 1.25a2.072 2.072 0 0 1-.692.773c-.289.191-.625.324-1.004.406a5.638 5.638 0 0 1-1.195.121zm0 0"/></svg>