<svg xmlns="http://www.w3.org/2000/svg" width="32" height="px" viewBox="0 0 32 32"><path style="stroke:none;fill-rule:nonzero;fill:#a179dc;fill-opacity:1" d="M30.176 9.383c0-.535-.117-1.012-.348-1.418a2.75 2.75 0 0 0-1.027-1C25.02 4.785 21.234 2.613 17.457.43c-1.02-.59-2.008-.567-3.02.03-1.503.888-9.039 5.204-11.285 6.505-.922.535-1.37 1.351-1.375 2.418v13.152c0 .524.11.988.332 1.39.227.41.575.759 1.043 1.028 2.246 1.3 9.782 5.617 11.286 6.504 1.011.598 2 .617 3.019.031 3.777-2.183 7.563-4.355 11.344-6.535.469-.273.816-.617 1.043-1.027.222-.403.332-.867.332-1.395V9.383"/><path style="stroke:none;fill-rule:nonzero;fill:#280068;fill-opacity:1" d="M16.02 15.914 2.11 23.926c.226.41.574.758 1.042 1.027 2.246 1.3 9.782 5.617 11.286 6.504 1.011.598 2 .617 3.019.031 3.777-2.183 7.563-4.355 11.344-6.535.469-.273.816-.617 1.043-1.027L16.02 15.914"/><path style="stroke:none;fill-rule:nonzero;fill:#390091;fill-opacity:1" d="M30.176 9.383c0-.535-.117-1.012-.348-1.418l-13.808 7.95 13.824 8.01c.222-.402.332-.866.332-1.394V9.383"/><path style="stroke:none;fill-rule:nonzero;fill:#fff;fill-opacity:1" d="M24.21 12.922v1.496h1.497v-1.496h.75v1.496h1.496v.75h-1.496v1.496h1.496v.75h-1.496v1.496h-.75v-1.496h-1.496v1.496h-.75v-1.496h-1.496v-.75h1.496v-1.496h-1.496v-.75h1.496v-1.496zm1.497 2.246h-1.496v1.496h1.496zm0 0"/><path style="stroke:none;fill-rule:nonzero;fill:#fff;fill-opacity:1" d="M16.05 5.402c3.907 0 7.313 2.121 9.141 5.274l-.02-.031-4.593 2.644a5.25 5.25 0 0 0-4.469-2.586h-.058a5.256 5.256 0 0 0-5.258 5.254c0 .95.254 1.84.695 2.61a5.253 5.253 0 0 0 4.563 2.648 5.261 5.261 0 0 0 4.582-2.68l-.024.04 4.586 2.655a10.543 10.543 0 0 1-9.027 5.282l-.117.004a10.55 10.55 0 0 1-9.156-5.305 10.492 10.492 0 0 1-1.399-5.254c0-5.828 4.727-10.555 10.555-10.555zm0 0"/></svg>