<svg xmlns="http://www.w3.org/2000/svg" width="32" height="px" viewBox="0 0 32 32"><path style="stroke:none;fill-rule:nonzero;fill:#a9b9cb;fill-opacity:1" d="M30.223 9.52c-.004-.54-.118-1.016-.348-1.422-.23-.403-.574-.739-1.031-1.004C25.059 4.91 21.266 2.73 17.48.543c-1.02-.59-2.007-.57-3.023.027-1.508.89-9.05 5.22-11.3 6.524-.927.535-1.376 1.355-1.38 2.426v13.183c0 .527.11.992.332 1.395.23.414.579.757 1.047 1.03 2.246 1.306 9.793 5.634 11.301 6.52 1.016.602 2.004.622 3.023.032 3.786-2.188 7.579-4.367 11.364-6.551.472-.274.816-.617 1.047-1.031.222-.403.332-.868.332-1.395V9.52"/><path style="stroke:none;fill-rule:nonzero;fill:#7f8b99;fill-opacity:1" d="M17.457.57c-1.02-.59-2.008-.566-3.02.032-1.503.886-9.039 5.203-11.285 6.503-.922.536-1.37 1.352-1.375 2.418v13.153c0 .523.11.988.332 1.39.227.41.575.758 1.043 1.028.516.297 1.309.754 2.239 1.293L26.18 5.597C23.273 3.923 20.363 2.25 17.457.57"/><path style="stroke:none;fill-rule:nonzero;fill:#fff;fill-opacity:1" d="m18.941 14.11 4.426.03c0-1.847-1.867-6.363-7.219-6.363-3.41 0-7.996 2.168-7.996 8.403 0 6.23 4.493 8.265 7.996 8.265 5.668 0 7.024-3.922 7.024-6.14l-4.227-.242s.114 2.566-2.82 2.566c-2.71 0-3.164-3.32-3.164-4.45 0-1.718.613-4.472 3.164-4.472 2.55 0 2.816 2.402 2.816 2.402"/></svg>