<svg xmlns="http://www.w3.org/2000/svg" width="32" height="px" viewBox="0 0 32 32"><path style="stroke:none;fill-rule:nonzero;fill:#1572b6;fill-opacity:1" d="M5.902 27.2 3.656 2h24.688l-2.25 25.195L15.984 30zm0 0"/><path style="stroke:none;fill-rule:nonzero;fill:#33a9dc;fill-opacity:1" d="m16 27.86 8.172-2.266 1.922-21.532H16zm0 0"/><path style="stroke:none;fill-rule:nonzero;fill:#fff;fill-opacity:1" d="M16 13.191h4.09l.281-3.164H16V6.934h7.75l-.074.832-.758 8.515H16zm0 0"/><path style="stroke:none;fill-rule:nonzero;fill:#ebebeb;fill-opacity:1" d="m16.02 21.219-.016.004-3.442-.93-.218-2.465H9.238l.434 4.852 6.332 1.758.016-.004zm0 0"/><path style="stroke:none;fill-rule:nonzero;fill:#fff;fill-opacity:1" d="m19.828 16.152-.375 4.137-3.445.93v3.218l6.336-1.757.047-.524.539-6.004zm0 0"/><path style="stroke:none;fill-rule:nonzero;fill:#ebebeb;fill-opacity:1" d="M16.012 6.934v3.093H8.547l-.063-.695-.14-1.566-.074-.832zM16 13.191v3.09h-3.398l-.063-.695-.14-1.566-.075-.829zm0 0"/></svg>