<svg xmlns="http://www.w3.org/2000/svg" width="32" height="px" viewBox="0 0 32 32"><path style="stroke:none;fill-rule:nonzero;fill:#0acf83;fill-opacity:1" d="M10.668 32A5.336 5.336 0 0 0 16 26.668v-5.336h-5.332a5.338 5.338 0 0 0-5.336 5.336A5.337 5.337 0 0 0 10.668 32zm0 0"/><path style="stroke:none;fill-rule:nonzero;fill:#a259ff;fill-opacity:1" d="M5.332 16a5.335 5.335 0 0 1 5.336-5.332H16v10.664h-5.332A5.335 5.335 0 0 1 5.332 16zm0 0"/><path style="stroke:none;fill-rule:nonzero;fill:#f24e1e;fill-opacity:1" d="M5.332 5.332A5.337 5.337 0 0 1 10.668 0H16v10.668h-5.332a5.338 5.338 0 0 1-5.336-5.336zm0 0"/><path style="stroke:none;fill-rule:nonzero;fill:#ff7262;fill-opacity:1" d="M16 0h5.332a5.337 5.337 0 0 1 5.336 5.332 5.338 5.338 0 0 1-5.336 5.336H16zm0 0"/><path style="stroke:none;fill-rule:nonzero;fill:#1abcfe;fill-opacity:1" d="M26.668 16A5.335 5.335 0 0 1 16 16a5.334 5.334 0 0 1 10.668 0zm0 0"/></svg>