<svg xmlns="http://www.w3.org/2000/svg" width="32" height="px" viewBox="0 0 32 32"><path style="stroke:none;fill-rule:nonzero;fill:#ffc24a;fill-opacity:1" d="m5.8 24.602.169-.239 8.02-15.215.019-.16-3.535-6.64a.656.656 0 0 0-1.227.207zm0 0"/><path style="stroke:none;fill-rule:nonzero;fill:#ffa712;fill-opacity:1" d="m5.898 24.422.13-.25 7.937-15.059-3.527-6.664a.597.597 0 0 0-1.133.203zm0 0"/><path style="stroke:none;fill-rule:nonzero;fill:#f4bd62;fill-opacity:1" d="m16.586 14.012 2.629-2.703-2.633-5.02a.681.681 0 0 0-.598-.36c-.25 0-.476.141-.597.36L13.98 8.973v.226zm0 0"/><path style="stroke:none;fill-rule:nonzero;fill:#ffa50e;fill-opacity:1" d="m16.535 13.898 2.567-2.617-2.567-4.883a.587.587 0 0 0-1.07-.046l-1.414 2.73-.043.14zm0 0"/><path style="stroke:none;fill-rule:nonzero;fill:#f6820c;fill-opacity:1" d="m5.8 24.602.079-.079.277-.113 10.262-10.223.129-.351-2.559-4.879zm0 0"/><path style="stroke:none;fill-rule:nonzero;fill:#fde068;fill-opacity:1" d="m16.91 29.758 9.29-5.18-2.653-16.332a.633.633 0 0 0-.434-.5.627.627 0 0 0-.64.152L5.8 24.602l9.23 5.152a1.916 1.916 0 0 0 1.88 0"/><path style="stroke:none;fill-rule:nonzero;fill:#fcca3f;fill-opacity:1" d="m26.113 24.535-2.629-16.21a.559.559 0 0 0-.969-.352L5.899 24.57l9.133 5.098a1.906 1.906 0 0 0 1.864 0zm0 0"/><path style="stroke:none;fill-rule:nonzero;fill:#eeab37;fill-opacity:1" d="M16.91 29.602a1.929 1.929 0 0 1-1.875 0l-9.16-5.079-.074.079 9.23 5.152a1.916 1.916 0 0 0 1.88 0l9.288-5.176-.023-.14zm0 0"/><path style="stroke:none;fill-rule:nonzero;fill:#252525;fill-opacity:1" d="m23.2 13-7.794 3.535v11.067l6.219-2.817V31L31 26.742V16.535zm0 0"/><path style="stroke:none;fill-rule:nonzero;fill:#fff;fill-opacity:1" d="m23.2 14.73-6.216 2.82v2.778l6.215-2.82 6.223 2.82v-2.777zm0 0"/><path style="stroke:none;fill-rule:nonzero;fill:#fff;fill-opacity:1" d="m23.2 19.563-6.216 2.82v2.773l6.215-2.82 6.223 2.82v-2.773zm0 0"/><path style="stroke:none;fill-rule:nonzero;fill:#fff;fill-opacity:1" d="m28.605 26.098-3.054-1.387-2.352 1.066v2.77zm0 0"/></svg>