<svg xmlns="http://www.w3.org/2000/svg" width="32" height="px" viewBox="0 0 32 32"><path style="stroke:none;fill-rule:nonzero;fill:#161614;fill-opacity:1" d="M16 .375c-8.836 0-16 7.164-16 16 0 7.07 4.586 13.066 10.941 15.184.801.148 1.094-.348 1.094-.77 0-.383-.015-1.644-.023-2.98-4.45.968-5.39-1.887-5.39-1.887-.727-1.852-1.774-2.344-1.774-2.344-1.453-.992.109-.973.109-.973 1.606.114 2.453 1.653 2.453 1.653 1.426 2.445 3.742 1.738 4.656 1.328.141-1.035.555-1.738 1.016-2.14-3.555-.403-7.293-1.774-7.293-7.907 0-1.746.625-3.172 1.649-4.293-.165-.402-.711-2.031.156-4.234 0 0 1.343-.43 4.402 1.64A15.206 15.206 0 0 1 16 8.113c1.36.004 2.73.184 4.008.54 3.055-2.071 4.394-1.641 4.394-1.641.871 2.203.325 3.832.16 4.234 1.024 1.121 1.645 2.547 1.645 4.293 0 6.145-3.742 7.5-7.305 7.895.575.496 1.086 1.472 1.086 2.964 0 2.141-.02 3.864-.02 4.391 0 .426.29.922 1.098.766C27.422 29.438 32 23.44 32 16.375c0-8.836-7.164-16-16-16zM5.992 23.168c-.035.078-.16.102-.273.047-.117-.05-.18-.16-.145-.238.035-.082.16-.106.278-.051.113.05.18.16.14.242zm.79.703c-.079.07-.227.035-.329-.074-.105-.113-.125-.262-.047-.332s.223-.04.328.074c.106.11.125.258.047.332zm.538.899c-.097.066-.258.003-.36-.141-.097-.14-.097-.313.005-.379.098-.07.258-.008.355.133.098.144.098.316 0 .387zm.914 1.039c-.09.097-.277.07-.414-.063-.14-.129-.175-.308-.09-.406.09-.098.278-.07.415.058.14.13.183.317.09.41zm1.18.351c-.039.125-.219.184-.402.13-.18-.056-.297-.204-.262-.33.04-.124.219-.183.402-.128.18.055.297.2.262.328zm1.344.149c.004.132-.153.242-.34.246-.191.004-.348-.106-.352-.235 0-.133.153-.242.344-.246.192-.004.348.106.348.235zm1.316-.051c.024.129-.11.262-.297.297-.187.035-.359-.047-.382-.172-.024-.133.113-.266.296-.301.192-.031.36.047.383.176zm0 0"/></svg>