<svg xmlns="http://www.w3.org/2000/svg" width="32" height="px" viewBox="0 0 32 32"><path style="stroke:none;fill-rule:nonzero;fill:#409;fill-opacity:1" d="M4.8 0h22.4A4.8 4.8 0 0 1 32 4.8v22.4a4.8 4.8 0 0 1-4.8 4.8H4.8A4.8 4.8 0 0 1 0 27.2V4.8A4.8 4.8 0 0 1 4.8 0zm0 0"/><path style="fill-rule:nonzero;fill:#409;fill-opacity:1;stroke-width:16;stroke-linecap:butt;stroke-linejoin:miter;stroke:#fff;stroke-opacity:1;stroke-miterlimit:4" d="M367 99H145c-22 0-30 8-30 30v254c0 22 8 30 30 30h222c22 0 30-8 30-30V129c0-22-9-30-30-30" transform="scale(.0625)"/><path style="stroke:none;fill-rule:nonzero;fill:#fff;fill-opacity:1" d="M11.375 17.75c3.5-1.75 5.875-1.938 6.688-1.563.562.25.562.938.562.938v6.188h2.063v-6.25s-.063-2-1.688-2.75-3.875-.063-5.5.374V8.75h-2.125m7.75 3.375S20.5 10.75 20.688 8.75h-2.125C18.25 10.563 17 12.125 17 12.125M11.375 23.25l2.313-2.063-2.313-2.062"/></svg>