<svg xmlns="http://www.w3.org/2000/svg" width="32" height="px" viewBox="0 0 32 32"><path style="stroke:none;fill-rule:nonzero;fill:#e44f26;fill-opacity:1" d="M5.902 27.2 3.656 2h24.688l-2.25 25.195L15.984 30zm0 0"/><path style="stroke:none;fill-rule:nonzero;fill:#f1662a;fill-opacity:1" d="m16 27.86 8.172-2.266 1.922-21.532H16zm0 0"/><path style="stroke:none;fill-rule:nonzero;fill:#ebebeb;fill-opacity:1" d="M16 13.406h-4.09l-.281-3.164H16v-3.09H8.25l.074.828.758 8.516H16zM16 21.434l-.016.003-3.441-.93-.219-2.464H9.223l.43 4.852 6.331 1.757.016-.004zm0 0"/><path style="stroke:none;fill-rule:nonzero;fill:#fff;fill-opacity:1" d="M15.988 13.406v3.09h3.809l-.36 4.012-3.449.93v3.214l6.336-1.757.047-.52.727-8.137.078-.832zM15.988 7.152v3.09h7.465l.063-.695.14-1.567.074-.828zm0 0"/></svg>