<svg xmlns="http://www.w3.org/2000/svg" width="32" height="px" viewBox="0 0 32 32"><path style="stroke:none;fill-rule:nonzero;fill:#3880ff;fill-opacity:1" d="M16.02 0c2.597 0 5.043.605 7.335 1.781l.305.153-.265.207a4.998 4.998 0 0 0-1.48 1.933l-.095.211-.191-.094a12.936 12.936 0 0 0-5.59-1.273C8.816 2.918 2.957 8.797 2.957 16c0 7.203 5.84 13.082 13.063 13.082 7.222 0 13.078-5.879 13.078-13.082 0-1.727-.32-3.41-1.004-5.004l-.094-.21.207-.095a5.092 5.092 0 0 0 2.012-1.363l.207-.265.133.3A15.725 15.725 0 0 1 32 15.961c0 8.816-7.184 16-16 16-8.816 0-16-7.184-16-16C0 7.148 7.184-.04 16.02 0zm0 8.719c4 0 7.277 3.261 7.296 7.3a7.285 7.285 0 0 1-7.296 7.297c-4.04 0-7.301-3.257-7.301-7.296 0-4.04 3.281-7.301 7.3-7.301zM26.465 2.69a3.337 3.337 0 1 1-.002 6.674 3.337 3.337 0 0 1 .002-6.674zm0 0"/></svg>