<svg xmlns="http://www.w3.org/2000/svg" width="32" height="px" viewBox="0 0 32 32"><path style="stroke:none;fill-rule:nonzero;fill:#5382a1;fill-opacity:1" d="M11.797 24.738s-1.219.707.867.95c2.531.289 3.828.246 6.617-.282 0 0 .73.461 1.758.86-6.254 2.68-14.152-.157-9.242-1.528M11.031 21.238s-1.367 1.016.723 1.23c2.703.282 4.84.305 8.535-.41 0 0 .512.52 1.316.805-7.562 2.211-15.984.172-10.574-1.625"/><path style="stroke:none;fill-rule:nonzero;fill:#e76f00;fill-opacity:1" d="M17.473 15.309c1.543 1.773-.403 3.37-.403 3.37s3.91-2.019 2.114-4.55c-1.676-2.36-2.965-3.531 4.003-7.57 0 0-10.937 2.73-5.714 8.75"/><path style="stroke:none;fill-rule:nonzero;fill:#5382a1;fill-opacity:1" d="M25.746 27.324s.902.746-.996 1.32c-3.61 1.094-15.023 1.422-18.195.044-1.137-.497 1-1.184 1.672-1.329.699-.152 1.101-.125 1.101-.125-1.265-.89-8.191 1.754-3.515 2.512 12.746 2.067 23.238-.93 19.933-2.422M12.383 17.617s-5.805 1.38-2.055 1.88c1.582.21 4.738.163 7.68-.083 2.402-.203 4.812-.633 4.812-.633s-.843.364-1.457.782c-5.898 1.55-17.285.828-14.008-.758 2.774-1.34 5.028-1.188 5.028-1.188M22.797 23.438c5.996-3.114 3.223-6.106 1.289-5.704-.473.098-.684.184-.684.184s.176-.273.512-.395c3.824-1.343 6.77 3.97-1.234 6.07 0 0 .09-.081.117-.155"/><path style="stroke:none;fill-rule:nonzero;fill:#e76f00;fill-opacity:1" d="M19.184.035s3.32 3.32-3.145 8.426c-5.187 4.094-1.184 6.43-.004 9.098-3.027-2.73-5.25-5.137-3.758-7.375 2.188-3.282 8.246-4.875 6.907-10.149"/><path style="stroke:none;fill-rule:nonzero;fill:#5382a1;fill-opacity:1" d="M12.973 31.875c5.754.371 14.586-.203 14.797-2.926 0 0-.403 1.031-4.754 1.852-4.91.926-10.97.816-14.559.226 0 0 .734.606 4.516.848"/></svg>