<svg xmlns="http://www.w3.org/2000/svg" width="32" height="px" viewBox="0 0 32 32"><path style="stroke:none;fill-rule:nonzero;fill:#000;fill-opacity:1" d="M2.023 7.855c-2.82 4.06-2.468 9.336-.312 13.649.05.105.101.207.156.308.035.063.067.13.102.192.02.039.043.078.062.113l.114.203c.07.121.136.239.207.356a19.96 19.96 0 0 0 .355.566c.031.051.066.102.102.156.113.168.226.336.343.497l.012.015c.02.027.04.05.059.078.101.14.207.282.316.422l.117.149c.098.12.196.242.293.359l.11.133c.132.156.27.308.41.465l.023.023c.137.148.274.293.41.434l.133.132c.11.11.215.22.328.325l.137.129a14.8 14.8 0 0 0 .46.414c.024.023.052.047.08.066.136.117.272.234.41.348l.167.136c.113.09.227.18.344.266l.184.14c.125.094.253.184.382.274l.141.102.039.03c.121.083.25.165.371.247.055.035.106.07.164.102.192.12.387.242.582.355l.16.094.438.246c.082.043.164.082.242.125.106.055.207.11.316.16l.07.035.13.063c.164.078.328.156.496.23l.101.047c.192.086.387.164.582.242l.141.055c.18.07.363.14.547.207l.066.023c.207.07.41.133.617.2l.145.043c.164.058.375.12.594.168l.039.007c13.652 2.489 17.62-8.203 17.62-8.203-3.331 4.34-9.245 5.485-14.85 4.207-.212-.047-.415-.113-.626-.172l-.156-.05c-.203-.063-.406-.125-.601-.196l-.082-.027c-.18-.063-.356-.129-.532-.2l-.148-.058c-.192-.074-.383-.156-.574-.238l-.114-.05-.484-.224-.14-.07c-.126-.058-.25-.125-.372-.187a5.057 5.057 0 0 1-.25-.133c-.152-.078-.3-.164-.449-.25l-.152-.086c-.196-.113-.391-.238-.582-.356-.055-.035-.102-.07-.157-.105-.14-.09-.28-.18-.418-.273l-.132-.098c-.133-.09-.266-.188-.395-.281-.059-.047-.117-.09-.172-.133-.12-.09-.238-.184-.355-.278l-.157-.128a13.052 13.052 0 0 1-.44-.372l-.052-.039c-.156-.14-.308-.28-.465-.422l-.128-.125c-.114-.109-.223-.218-.332-.328l-.133-.129c-.137-.144-.27-.289-.407-.433l-.023-.024c-.14-.152-.277-.312-.414-.472l-.106-.13a12.234 12.234 0 0 1-.296-.366l-.114-.137c-.117-.152-.23-.309-.343-.457C2.867 15.719 1.75 9.863 4.234 5.059zm0 0"/><path style="stroke:none;fill-rule:nonzero;fill:#000;fill-opacity:1" d="M10.79 4.438A9.715 9.715 0 0 0 9.25 9.71c0 1.723.445 3.344 1.227 4.754l-.024-.05c.3.585.598 1.081.93 1.55l-.028-.043c.31.496.657.926 1.047 1.312h.004a13.022 13.022 0 0 0 .578.598c.153.145.305.293.47.434a11.908 11.908 0 0 0 .563.469l.124.097c.187.14.379.281.57.414l.02.016c.085.058.171.113.257.172.043.027.082.054.125.078.14.09.282.18.426.261l.059.036c.125.07.246.14.375.203.043.027.086.047.132.07.086.043.172.09.262.137l.04.015c.179.09.359.176.546.258l.121.047c.145.063.297.125.446.184l.19.07c.138.05.278.098.411.145l.188.058c.16.059.359.117.566.164l.031.008c10.54 1.746 12.977-6.371 12.977-6.371-2.195 3.156-6.445 4.664-10.977 3.488-.207-.055-.402-.11-.597-.172l-.18-.058a17.66 17.66 0 0 1-.418-.145l-.188-.07c-.152-.059-.3-.117-.449-.18-.039-.02-.082-.035-.12-.05a14.12 14.12 0 0 1-.552-.258c-.093-.043-.183-.094-.273-.141l-.16-.082a9.966 9.966 0 0 1-.348-.195l-.082-.047a40.82 40.82 0 0 1-.426-.258 2.383 2.383 0 0 0-.125-.086 15.174 15.174 0 0 1-.844-.598l-.128-.105a12.76 12.76 0 0 1-4.274-6.043l-.027-.09a9.396 9.396 0 0 1-.477-2.977c0-1.71.453-3.32 1.246-4.71l-.027.05zm0 0"/><path style="stroke:none;fill-rule:nonzero;fill:#000;fill-opacity:1" d="M18.16 1.883a6.072 6.072 0 0 0-1.027 3.402c0 .914.199 1.781.558 2.563l-.015-.04c.933 2.083 2.633 3.684 4.734 4.462l.055.02c.09.03.176.058.265.089l.114.035c.101.04.226.074.355.106l.02.003c5.82 1.125 7.398-2.988 7.82-3.593-1.383 1.992-3.707 2.468-6.559 1.777a6.984 6.984 0 0 1-.687-.21 8.283 8.283 0 0 1-.871-.364l.05.02a8.144 8.144 0 0 1-1.452-.891l.02.015C18.983 7.34 17.401 3.645 19.065.641zm0 0"/></svg>