<svg xmlns="http://www.w3.org/2000/svg" width="32" height="px" viewBox="0 0 32 32"><path style="stroke:none;fill-rule:nonzero;fill:#f5de19;fill-opacity:1" d="M18.773 19.7a3.726 3.726 0 0 0 3.375 2.077c1.418 0 2.325-.707 2.325-1.687 0-1.172-.93-1.59-2.489-2.274l-.855-.367c-2.473-1.05-4.113-2.367-4.113-5.152 0-2.57 1.957-4.524 5.011-4.524a5.061 5.061 0 0 1 4.871 2.747l-2.664 1.71a2.325 2.325 0 0 0-2.199-1.464 1.48 1.48 0 0 0-1.637 1.464c0 1.028.633 1.442 2.098 2.079l.856.367c2.91 1.246 4.55 2.515 4.55 5.375 0 3.082-2.422 4.77-5.672 4.77a6.576 6.576 0 0 1-6.234-3.5zM6.688 20c.535.953 1.027 1.762 2.199 1.762 1.125 0 1.832-.442 1.832-2.153V7.977h3.422v11.68c0 3.542-2.079 5.155-5.11 5.155a5.31 5.31 0 0 1-5.133-3.125zm0 0"/></svg>