<svg xmlns="http://www.w3.org/2000/svg" width="32" height="px" viewBox="0 0 32 32"><path style="stroke:none;fill-rule:nonzero;fill:#ff2d20;fill-opacity:1" d="M31.496 7.227c.012.043.02.085.02.128v6.86c0 .18-.098.344-.25.433l-5.758 3.313v6.566c0 .18-.094.344-.25.434l-12.012 6.918c-.027.016-.059.023-.086.035-.012.004-.023.012-.035.012a.481.481 0 0 1-.258 0c-.012 0-.023-.008-.039-.016a.353.353 0 0 1-.082-.031L.734 24.96a.505.505 0 0 1-.25-.434V3.957c0-.043.008-.086.02-.129.004-.015.012-.027.016-.043a.466.466 0 0 1 .03-.078c.012-.016.024-.027.036-.043.016-.02.027-.043.043-.059.016-.015.035-.023.05-.039.02-.015.036-.03.055-.043L6.742.066a.497.497 0 0 1 .5 0l6.004 3.457c.024.012.04.028.059.043.015.012.03.024.047.04.015.015.03.039.046.058.008.016.024.027.032.043.015.027.023.05.03.078.009.016.017.027.02.043a.485.485 0 0 1 .016.129v12.848l5.008-2.88v-6.57c0-.043.004-.085.016-.128.003-.016.011-.028.02-.043a.327.327 0 0 1 .03-.079c.008-.015.024-.027.032-.043l.046-.058c.016-.016.032-.024.047-.04.02-.01.035-.03.059-.042l6.004-3.457a.497.497 0 0 1 .5 0l6.008 3.457c.02.016.035.031.054.043.016.015.035.023.047.039.02.02.031.039.047.059l.035.042.031.079c.004.015.012.027.016.043zm-.98 6.699V8.223l-2.102 1.21-2.906 1.672v5.7zm-6.008 10.312v-5.703l-2.856 1.63-8.156 4.655v5.758zM1.484 4.824v19.414l11.012 6.34V24.82l-5.75-3.258h-.008c-.02-.011-.035-.027-.05-.042-.016-.012-.036-.02-.051-.036-.016-.015-.028-.035-.04-.054a.414.414 0 0 1-.038-.047v-.004a.302.302 0 0 1-.028-.063c-.008-.02-.02-.035-.023-.054-.008-.028-.008-.051-.012-.075 0-.019-.004-.039-.004-.058V7.707L3.586 6.031zm5.508-3.746L1.988 3.957 6.992 6.84l5-2.883zm2.602 17.977 2.902-1.672V4.824l-2.101 1.211-2.903 1.672v12.559zM25.008 4.477l-5.004 2.878 5.004 2.883 5.004-2.883zm-.5 6.628-2.903-1.671-2.101-1.211v5.703l2.902 1.668 2.102 1.21zM12.996 23.953l7.34-4.187 3.668-2.094-5-2.879-5.758 3.312L8 21.125zm0 0"/></svg>