<svg xmlns="http://www.w3.org/2000/svg" width="32" height="px" viewBox="0 0 32 32"><path style="stroke:none;fill-rule:nonzero;fill:#eb3c00;fill-opacity:1" d="M0 19.125V12.93l5.48-2.024 2.977.953v8.336l-2.977.899L0 19.125l5.48.66v-7.21l-3.574.831v4.883zm14.293.043c-.863 0-1.555-.285-2.074-.852-.52-.57-.778-1.308-.778-2.218 0-.98.266-1.762.793-2.344.528-.582 1.25-.871 2.16-.871.84 0 1.516.281 2.028.847.515.567.77 1.305.77 2.22 0 .991-.262 1.777-.79 2.35-.523.579-1.226.868-2.109.868zm.05-5.64c-.64 0-1.16.23-1.558.69-.398.462-.598 1.067-.598 1.813 0 .75.196 1.356.583 1.813.39.453.898.683 1.523.683.664 0 1.191-.218 1.578-.652.383-.438.574-1.047.574-1.828 0-.805-.187-1.426-.558-1.863-.375-.438-.887-.657-1.543-.657zm5.384-.985c-.391 0-.72.133-.98.398-.267.262-.395.621-.395 1.079v.703h-.743v.597h.743v3.746h.691V15.32h1.691v3.746h.696V15.32h1.015v-.597H21.43v-.668c0-.614.242-.922.726-.922.176 0 .328.035.465.113v-.625a1.363 1.363 0 0 0-.504-.078 1.34 1.34 0 0 0-.988.398c-.262.262-.395.625-.395 1.079v.703h-1.691v-.668c0-.614.242-.922.73-.922.172 0 .325.035.461.113v-.625a1.371 1.371 0 0 0-.507-.078zm3.73 1.074a.436.436 0 0 1-.45-.45.442.442 0 0 1 .45-.452c.125 0 .234.043.324.129a.43.43 0 0 1 .133.324.428.428 0 0 1-.133.32.454.454 0 0 1-.324.13zm.34 5.45h-.695v-4.344h.695zm3.95-.2c-.333.2-.727.301-1.188.301-.618 0-1.118-.203-1.497-.605-.382-.403-.574-.926-.574-1.567 0-.715.207-1.289.617-1.726.41-.434.957-.649 1.641-.649.383 0 .719.07 1.012.211v.711a1.796 1.796 0 0 0-1.035-.336c-.446 0-.809.156-1.094.477-.285.316-.426.734-.426 1.254 0 .507.133.91.399 1.203.27.293.628.441 1.078.441.379 0 .734-.125 1.066-.379zm4.253-1.8h-3.066c.011.484.14.859.39 1.12.246.262.59.395 1.028.395.488 0 .937-.16 1.347-.484v.652c-.383.277-.887.418-1.515.418-.614 0-1.094-.2-1.446-.594-.351-.394-.527-.949-.527-1.664 0-.676.191-1.226.574-1.652.383-.426.86-.637 1.43-.637.566 0 1.008.184 1.316.55.313.368.469.88.469 1.532zm-.71-.59c-.005-.399-.102-.711-.294-.938-.191-.223-.457-.332-.793-.332-.332 0-.61.117-.836.352-.23.234-.37.539-.426.918zm0 0"/></svg>