<svg xmlns="http://www.w3.org/2000/svg" width="32" height="px" viewBox="0 0 32 32"><path style="stroke:none;fill-rule:nonzero;fill:#00546b;fill-opacity:1" d="M29.457 24.527c-1.742-.043-3.09.13-4.219.61-.328.129-.847.129-.894.543.176.172.195.457.347.695.262.434.72 1.023 1.133 1.328.457.348.914.695 1.39 1 .849.52 1.806.824 2.634 1.348.476.304.957.695 1.433 1.023.242.172.395.457.7.563v-.063c-.153-.195-.2-.48-.352-.699-.215-.215-.434-.41-.652-.629a10.217 10.217 0 0 0-2.262-2.195c-.695-.48-2.215-1.133-2.5-1.938l-.043-.043c.48-.043 1.043-.218 1.5-.347.742-.196 1.414-.153 2.176-.348.347-.086.695-.195 1.043-.305v-.195c-.391-.39-.672-.914-1.086-1.285-1.11-.957-2.328-1.89-3.59-2.672-.672-.438-1.543-.719-2.262-1.09-.262-.129-.695-.195-.848-.414-.39-.477-.609-1.105-.89-1.672a53.293 53.293 0 0 1-1.785-3.785c-.39-.848-.63-1.695-1.11-2.48-2.238-3.696-4.675-5.938-8.414-8.133-.804-.457-1.761-.653-2.785-.89-.543-.024-1.086-.067-1.629-.087-.347-.152-.699-.566-1.004-.762C4.25.82 1.055-.875.141 1.367c-.586 1.41.87 2.805 1.37 3.52.368.504.848 1.066 1.11 1.633.152.37.195.761.348 1.152.347.957.672 2.023 1.129 2.914.238.457.5.937.804 1.348.176.242.48.347.543.742-.304.433-.324 1.086-.5 1.629-.78 2.457-.476 5.504.633 7.308.348.543 1.172 1.739 2.281 1.282.98-.391.762-1.63 1.047-2.72.063-.26.02-.433.153-.609v.047c.3.606.605 1.196.89 1.805.672 1.062 1.848 2.172 2.828 2.914.52.39.934 1.066 1.586 1.305v-.067h-.043c-.133-.195-.328-.28-.5-.433-.39-.395-.828-.871-1.133-1.305-.914-1.219-1.718-2.566-2.433-3.96-.348-.673-.652-1.415-.938-2.087-.129-.262-.129-.652-.347-.781-.324.476-.805.89-1.043 1.476-.414.934-.457 2.09-.61 3.286-.086.02-.043 0-.086.043-.695-.176-.937-.891-1.195-1.5-.652-1.547-.762-4.024-.195-5.809.152-.457.805-1.89.543-2.324-.133-.414-.567-.653-.805-.98a8.574 8.574 0 0 1-.785-1.391c-.52-1.22-.781-2.567-1.348-3.785-.261-.567-.718-1.153-1.086-1.676-.414-.586-.87-1-1.195-1.696-.11-.238-.262-.628-.09-.89.043-.176.133-.238.305-.285.285-.239 1.09.066 1.371.195.805.328 1.48.633 2.152 1.09.305.219.633.629 1.024.738h.457c.695.152 1.476.043 2.129.238 1.152.371 2.199.914 3.133 1.504a19.288 19.288 0 0 1 6.785 7.438c.261.5.37.957.61 1.476.456 1.067 1.023 2.153 1.48 3.2.453 1.02.89 2.062 1.543 2.914.324.453 1.628.695 2.218.933.434.196 1.11.371 1.5.61a40.1 40.1 0 0 1 2.176 1.476c.348.262 1.434.805 1.5 1.242zm0 0"/><path style="stroke:none;fill-rule:nonzero;fill:#00546b;fill-opacity:1" d="M7.273 5.629c-.37 0-.628.043-.89.11v.042h.043c.172.348.476.586.695.89.176.349.324.696.5 1.044.024-.02.043-.043.043-.043.305-.219.457-.567.457-1.086-.129-.152-.152-.305-.262-.457-.129-.219-.414-.328-.586-.5zm0 0"/></svg>