<svg xmlns="http://www.w3.org/2000/svg" width="32" height="px" viewBox="0 0 32 32"><defs><radialGradient id="a" gradientUnits="userSpaceOnUse" cx=".837" cy="-125.811" fx=".837" fy="-125.811" r="363.057" gradientTransform="matrix(.05788 0 0 .05788 9.558 17.802)"><stop offset="0" style="stop-color:#fff;stop-opacity:1"/><stop offset=".5" style="stop-color:#4c6b97;stop-opacity:1"/><stop offset="1" style="stop-color:#231f20;stop-opacity:1"/></radialGradient></defs><path style="stroke:none;fill-rule:nonzero;fill:url(#a)" d="M32 15.977c0-4.649-7.164-8.415-16-8.415S0 11.329 0 15.977c0 4.644 7.164 8.41 16 8.41s16-3.766 16-8.41zm0 0"/><path style="stroke:none;fill-rule:nonzero;fill:#6181b6;fill-opacity:1" d="M31.375 15.977c0-4.301-6.883-7.79-15.375-7.79S.625 11.677.625 15.977c0 4.3 6.883 7.785 15.375 7.785s15.375-3.485 15.375-7.785zm0 0"/><path style="stroke:none;fill-rule:nonzero;fill:#fff;fill-opacity:1" d="m19.113 18.5.762-3.926c.176-.886.023-1.55-.426-1.96-.437-.403-1.187-.602-2.285-.602h-1.328l.375-1.95a.257.257 0 0 0-.047-.21.23.23 0 0 0-.187-.09h-1.829a.26.26 0 0 0-.25.199l-.812 4.164c-.074-.477-.25-.875-.547-1.2C12 12.313 11.164 12 10.023 12H6.512a.256.256 0 0 0-.25.2l-1.637 8.448a.264.264 0 0 0 .05.215c.052.063.114.086.188.086H6.7a.253.253 0 0 0 .25-.199l.403-2.04H8.71c.715 0 1.328-.073 1.789-.222a3.546 3.546 0 0 0 1.313-.789c.312-.285.574-.613.773-.96l-.324 1.687a.259.259 0 0 0 .05.21.23.23 0 0 0 .188.09h1.824c.125 0 .227-.09.25-.203l.903-4.625h1.25c.535 0 .687.102.734.153.039.035.113.187.027.648l-.726 3.739a.259.259 0 0 0 .05.21.23.23 0 0 0 .188.09h1.875c.113-.039.21-.125.238-.238zm-8.449-3.25c-.113.586-.328 1.012-.64 1.25-.313.238-.825.363-1.5.363H7.71l.59-3.027h1.05c.774 0 1.086.164 1.211.3.165.2.2.59.102 1.114zM26.914 12.926c-.539-.614-1.375-.926-2.516-.926h-3.535a.253.253 0 0 0-.25.2l-1.636 8.437a.265.265 0 0 0 .046.215c.051.062.114.085.188.085h1.84a.256.256 0 0 0 .25-.199l.398-2.039h1.363c.711 0 1.325-.074 1.79-.222a3.61 3.61 0 0 0 1.312-.79c.324-.3.598-.636.797-1 .203-.363.352-.761.437-1.199.215-1.09.051-1.937-.484-2.562zM25 15.25c-.113.586-.324 1.012-.637 1.25-.312.238-.824.363-1.5.363h-.812l.586-3.027h1.05c.774 0 1.086.164 1.211.3.176.2.215.59.102 1.114zm0 0"/><path style="stroke:none;fill-rule:nonzero;fill:#000004;fill-opacity:1" d="M9.352 13.586c.699 0 1.16.125 1.398.39.238.262.29.7.164 1.325-.125.648-.375 1.125-.738 1.398-.364.278-.914.414-1.653.414H7.414l.688-3.527zm-4.477 7.101h1.836l.437-2.238h1.579c.699 0 1.261-.074 1.71-.222a3.36 3.36 0 0 0 1.227-.739c.313-.289.563-.601.75-.937.188-.34.324-.715.399-1.125.199-1 .05-1.778-.438-2.34-.488-.563-1.262-.836-2.324-.836H6.51zM14.164 10.012h1.824l-.437 2.238h1.625c1.023 0 1.722.176 2.113.54.387.358.5.937.348 1.733l-.762 3.926h-1.852l.727-3.738c.086-.422.05-.711-.086-.86-.14-.152-.453-.238-.914-.238h-1.46l-.938 4.836h-1.829zM23.688 13.586c.699 0 1.164.125 1.398.39.238.262.289.7.164 1.325-.125.648-.375 1.125-.738 1.398-.364.278-.91.414-1.649.414H21.75l.688-3.527zm-4.477 7.101h1.84l.437-2.238h1.575c.699 0 1.261-.074 1.71-.222.454-.153.852-.391 1.227-.739.313-.289.563-.601.75-.937.188-.34.324-.715.398-1.125.204-1 .051-1.778-.437-2.34-.484-.563-1.262-.836-2.324-.836h-3.535zm0 0"/></svg>