<svg xmlns="http://www.w3.org/2000/svg" width="32" height="px" viewBox="0 0 32 18"><path style="stroke:none;fill-rule:nonzero;fill:#ccc;fill-opacity:1" d="m23.77.05-.016-.03c-.012-.008-.02-.016-.035-.016l-.035.008c-.016.015-.024.023-.024.039l-.71 13.008.109-.02.683-12.648.82 1.359h-.007c.62 1.844.879 3.805.78 5.883l.052.074.808 1.453.051.05c1.25 1.11 2.649 1.852 4.195 2.231l.38.618.046.02.012-.02L23.754.297 23.77.05"/><path style="stroke:none;fill-rule:nonzero;fill:#ccc;fill-opacity:1" d="M23.52 4.64c.878 1.817 1.195 4.563.96 8.239l3.426-.422zM31.32 12.629c.352-.043.578-.121.68-.23l-17.918 2.206h-.008c.008.75.344 1.344.996 1.766.176.125.36.219.528.277.156-.183.336-.32.543-.445h.007c1.875-1.152 4.665-1.328 8.348-.543l.043.008c.402.086.805.187 1.18.305.11.02.203-.016.277-.082.133-.102.3-.18.527-.23v-.009c.594-1.066 1.399-1.851 2.403-2.367a6.784 6.784 0 0 1 2.394-.656M22.715 12.957l.82-12.691a43.296 43.296 0 0 1-5.719 12.968l4.899-.277M18.102 2.73l-.036-.015-.03.008-.02.043-.676 10.984.098-.008.68-10.976-.016-.036M17.145 13.516 17.867 2.8l-3.793 11.043 3.07-.328"/><path style="fill:none;stroke-width:12;stroke-linecap:round;stroke-linejoin:round;stroke:#ccc;stroke-opacity:1;stroke-miterlimit:4" d="M2102.651 2057.906c-114.914 55.047-198.488 63.986-251.672 30.582-52.709-35.757-133.909-27.288-244.075 24.465M2372.368 2065.905c-21.368-7.058-44.636-12.233-69.328-14.115-49.86-4.234-109.692 15.526-179.97 56.929-70.278 42.814-154.802 59.281-255.471 49.871M3000.125 1962.398c-484.351-99.743-833.368-76.69-1047.052 71.043M3305.455 2009.917c-21.368-7.999-44.636-13.174-68.853-14.115-49.86-4.234-110.166 15.526-180.445 56.929-70.278 41.873-154.327 58.34-255.471 49.871" transform="scale(.00823 .0083)"/><path style="fill:none;stroke-width:29;stroke-linecap:round;stroke-linejoin:round;stroke:#ccc;stroke-opacity:1;stroke-miterlimit:4" d="M2655.38 341.102c-49.859-30.581-102.093-22.112-155.751 25.407-47.01-47.52-95.92-55.988-146.73-25.407M2542.366 170.316c-50.81-30.582-100.67-18.349-151.953 36.698-49.86-55.047-100.67-67.28-151.479-36.698" transform="scale(.00823 .0083)"/><path style="stroke:none;fill-rule:nonzero;fill:#6c78af;fill-opacity:1" d="M.469 14.645h1.11c.331 0 .577.097.734.289.156.191.207.457.152.8-.024.141-.063.27-.121.387a1.307 1.307 0 0 1-.23.32.987.987 0 0 1-.38.25c-.14.051-.316.079-.535.079H.703l-.121.765H.004zm.504.457-.196 1.214h.352c.23 0 .402-.05.516-.144.113-.098.187-.258.222-.48.035-.215.016-.368-.058-.458-.075-.086-.223-.132-.442-.132H.973M3.113 13.875h.57l-.12.77h.507c.32 0 .543.062.668.183.125.125.164.32.121.594l-.214 1.348h-.582l.203-1.282c.023-.148.011-.246-.032-.3-.046-.051-.144-.079-.289-.079h-.457l-.265 1.66h-.575l.465-2.894M5.48 14.645h1.114c.332 0 .578.097.734.289.156.191.207.457.152.8-.023.141-.062.27-.12.387a1.307 1.307 0 0 1-.231.32.987.987 0 0 1-.379.25c-.14.051-.32.079-.535.079h-.496l-.121.765H5.02zm.504.457-.191 1.214h.352c.23 0 .402-.05.515-.144.113-.098.188-.258.223-.48.035-.215.015-.368-.059-.458-.078-.086-.222-.132-.441-.132h-.399"/><path style="stroke:none;fill-rule:nonzero;fill:#f89c0e;fill-opacity:1" d="M8.453 13.262h1.113l.485 2.687 1.351-2.687h1.106l-.563 3.504h-.742l.5-2.73-1.36 2.73H9.54l-.512-2.758-.363 2.758h-.77l.56-3.504M13.84 16.2h.558l.325-2.009h.695l-.402 2.504c-.055.344-.176.594-.364.758-.191.164-.453.246-.789.246h-1.367l.086-.52h1.246a.505.505 0 0 0 .32-.097.408.408 0 0 0 .153-.273l.008-.043h-.618c-.394 0-.664-.075-.804-.227-.145-.152-.188-.406-.133-.762l.254-1.586h.691l-.246 1.536c-.031.195-.023.32.027.382.051.059.168.09.36.09M17.293 13.262h.805l.972 3.504h-.843l-.196-.832H16.47l-.453.832h-.805zm.262.695-.742 1.348h1.07l-.328-1.348M21.695 16.766h-1.34c-.402 0-.699-.118-.89-.348-.188-.23-.25-.555-.184-.973a1.68 1.68 0 0 1 .145-.468c.07-.141.164-.27.277-.387a1.16 1.16 0 0 1 .461-.305c.172-.062.39-.094.652-.094h.598l.148-.93h.696zm-.605-.551.234-1.469h-.422c-.28 0-.492.059-.629.176-.136.113-.226.305-.27.574-.042.262-.015.445.075.555.09.11.27.164.535.164h.477M22.71 14.191h2.677c.39 0 .656.075.804.223.149.149.196.387.141.719l-.262 1.633h-.699l.246-1.543c.031-.192.02-.313-.027-.375-.05-.059-.164-.09-.348-.09h-.39l-.325 2.008h-.71l.32-2.008h-.813l-.32 2.008H22.3l.41-2.575M27.883 13.898h-.73l.1-.636h.731zm-.457 2.868h-.73l.41-2.575h.73l-.41 2.575M28.441 14.191h1.309c.398 0 .668.075.813.22.148.144.195.386.14.722l-.262 1.633h-.695l.246-1.547c.031-.196.02-.32-.031-.375-.05-.059-.172-.086-.356-.086h-.558l-.324 2.008h-.696l.414-2.575"/></svg>