<svg xmlns="http://www.w3.org/2000/svg" width="32" height="px" viewBox="0 0 32 32"><path style="stroke:none;fill-rule:nonzero;fill:#00d8ff;fill-opacity:1" d="M26.309 10.977a22.685 22.685 0 0 0-1.028-.325c.059-.238.11-.472.16-.703.778-3.785.27-6.832-1.472-7.836-1.668-.965-4.399.04-7.157 2.442-.265.23-.53.472-.796.73-.18-.172-.356-.336-.532-.492-2.89-2.563-5.785-3.645-7.523-2.64C6.293 3.12 5.797 5.983 6.5 9.573c.066.348.145.7.234 1.059-.41.117-.804.242-1.183.375C2.164 12.188 0 14.039 0 15.957c0 1.984 2.324 3.973 5.852 5.18.277.093.566.183.863.27-.094.39-.18.773-.25 1.144-.668 3.523-.145 6.324 1.515 7.281 1.72.992 4.602-.027 7.41-2.48.223-.196.446-.399.669-.618.289.282.578.543.867.79 2.719 2.343 5.402 3.285 7.066 2.324 1.715-.993 2.274-4 1.551-7.657a19.02 19.02 0 0 0-.195-.855c.203-.063.402-.125.597-.188C29.613 19.934 32 17.968 32 15.957c0-1.926-2.234-3.789-5.691-4.98zm-.793 8.875c-.176.058-.356.113-.54.168a31.395 31.395 0 0 0-1.62-4.055 31.651 31.651 0 0 0 1.558-3.996c.328.097.645.195.953.3 2.961 1.02 4.766 2.528 4.766 3.688 0 1.238-1.95 2.844-5.117 3.895zm-1.317 2.605c.32 1.617.367 3.078.156 4.223-.19 1.027-.574 1.71-1.05 1.984-1.008.586-3.164-.176-5.489-2.176-.265-.23-.535-.472-.804-.734.902-.984 1.8-2.133 2.683-3.406a31.428 31.428 0 0 0 4.332-.668c.067.265.125.523.172.777zM10.91 28.562c-.984.352-1.77.36-2.246.086-1.008-.582-1.43-2.828-.855-5.843.066-.344.144-.7.234-1.063 1.309.29 2.762.5 4.312.625a33.144 33.144 0 0 0 2.747 3.395c-.204.195-.407.383-.61.558-1.242 1.086-2.484 1.856-3.582 2.242zm-4.617-8.718c-1.559-.535-2.848-1.227-3.73-1.985-.793-.68-1.196-1.351-1.196-1.902 0-1.164 1.738-2.648 4.633-3.66.352-.121.723-.238 1.102-.348a32.653 32.653 0 0 0 1.562 4.043 33.377 33.377 0 0 0-1.582 4.098c-.27-.078-.535-.16-.789-.246zM7.84 9.312c-.602-3.074-.2-5.394.805-5.976 1.07-.617 3.437.266 5.933 2.48.16.141.317.29.48.446a32.177 32.177 0 0 0-2.726 3.37c-1.508.141-2.945.364-4.27.665-.085-.336-.16-.664-.222-.985zm13.805 3.407a42.486 42.486 0 0 0-.973-1.602c1.02.133 2 .301 2.918.512a30.157 30.157 0 0 1-1.024 2.754 51.224 51.224 0 0 0-.921-1.664zm-5.63-5.48c.63.679 1.262 1.445 1.883 2.273A38.014 38.014 0 0 0 16 9.465c-.633 0-1.262.015-1.883.043a29.13 29.13 0 0 1 1.899-2.27zm-5.663 5.491a42.696 42.696 0 0 0-.907 1.653 29.335 29.335 0 0 1-1.015-2.77 30.707 30.707 0 0 1 2.902-.496 38.463 38.463 0 0 0-.98 1.613zm1.007 8.168a29.113 29.113 0 0 1-2.949-.476c.285-.91.633-1.86 1.04-2.824a40.569 40.569 0 0 0 1.91 3.3zm4.696 3.88a30.027 30.027 0 0 1-1.926-2.305c.613.023 1.234.035 1.871.035.652 0 1.297-.012 1.934-.043a30.025 30.025 0 0 1-1.88 2.312zm6.523-7.227c.426.972.79 1.918 1.074 2.812-.93.215-1.93.383-2.984.512.332-.527.66-1.07.98-1.629.329-.566.637-1.133.93-1.695zm-2.113 1.012c-.5.867-1.012 1.695-1.535 2.476-.95.066-1.93.102-2.93.102-.996 0-1.965-.032-2.898-.09a38.18 38.18 0 0 1-1.563-2.48 38.216 38.216 0 0 1-1.367-2.579 39.083 39.083 0 0 1 2.914-5.05c.953-.07 1.93-.11 2.914-.11.992 0 1.969.04 2.918.11a39.567 39.567 0 0 1 1.543 2.464c.5.864.96 1.723 1.379 2.567a40.712 40.712 0 0 1-1.375 2.59zm2.82-15.266c1.07.617 1.488 3.11.817 6.379-.043.207-.094.422-.145.636a32.243 32.243 0 0 0-4.277-.675 32.291 32.291 0 0 0-2.707-3.38c.246-.234.492-.46.738-.671 2.36-2.059 4.57-2.871 5.574-2.29zM16 13.102a2.857 2.857 0 1 1 0 5.714 2.857 2.857 0 1 1 0-5.715zm0 0"/></svg>