<svg xmlns="http://www.w3.org/2000/svg" width="32" height="px" viewBox="0 0 32 32"><path style="stroke:none;fill-rule:nonzero;fill:#e01e5a;fill-opacity:1" d="M6.73 20.164c0 1.856-1.5 3.352-3.351 3.352a3.346 3.346 0 0 1-3.352-3.352 3.348 3.348 0 0 1 3.352-3.352H6.73zm1.676 0a3.35 3.35 0 0 1 3.352-3.352c1.855 0 3.351 1.5 3.351 3.352v8.383a3.348 3.348 0 0 1-3.351 3.351 3.35 3.35 0 0 1-3.352-3.351zm0 0"/><path style="stroke:none;fill-rule:nonzero;fill:#36c5f0;fill-opacity:1" d="M11.758 6.703a3.348 3.348 0 0 1-3.352-3.351A3.35 3.35 0 0 1 11.758 0c1.855 0 3.351 1.5 3.351 3.352v3.351zm0 1.703c1.855 0 3.351 1.5 3.351 3.352a3.346 3.346 0 0 1-3.351 3.351H3.352A3.348 3.348 0 0 1 0 11.758a3.35 3.35 0 0 1 3.352-3.352zm0 0"/><path style="stroke:none;fill-rule:nonzero;fill:#2eb67d;fill-opacity:1" d="M25.195 11.758a3.348 3.348 0 0 1 3.352-3.352 3.35 3.35 0 0 1 3.351 3.352c0 1.855-1.5 3.351-3.351 3.351h-3.352zm-1.68 0a3.346 3.346 0 0 1-3.35 3.351 3.348 3.348 0 0 1-3.352-3.351V3.352A3.35 3.35 0 0 1 20.163 0c1.856 0 3.352 1.5 3.352 3.352zm0 0"/><path style="stroke:none;fill-rule:nonzero;fill:#ecb22e;fill-opacity:1" d="M20.164 25.195a3.346 3.346 0 0 1 3.352 3.352 3.348 3.348 0 0 1-3.352 3.351 3.35 3.35 0 0 1-3.352-3.351v-3.352zm0-1.68a3.348 3.348 0 0 1-3.352-3.35 3.35 3.35 0 0 1 3.352-3.352h8.406c1.856 0 3.352 1.5 3.352 3.351a3.346 3.346 0 0 1-3.352 3.352zm0 0"/></svg>