<svg xmlns="http://www.w3.org/2000/svg" width="32" height="px" viewBox="0 0 32 32"><path style="stroke:none;fill-rule:nonzero;fill:#6db33f;fill-opacity:1" d="M4.867 4.484c6.324-6.125 16.434-5.96 22.559.395a13.591 13.591 0 0 0 1.71-2.996c2.009 6.125 3.227 11.262 2.766 15.246a15.928 15.928 0 0 1-3.718 9.156C22.52 33 12.44 33.86 5.723 28.195l-.13-.117-.003-.004c-.024-.012-.043-.027-.063-.043a1.62 1.62 0 0 1-.168-.156l-.02-.02-.206-.187a6.607 6.607 0 0 1-.594-.55l-.066-.075c-6.125-6.324-5.926-16.434.394-22.559zm2.371 21.438c-.593-.461-1.449-.395-1.91.2-.406.519-.402 1.245.008 1.726l.004.007.254.223.027.02c.574.379 1.348.3 1.793-.235l.024-.031c.46-.594.359-1.45-.2-1.91zm21.735-22.39c-1.649 3.456-5.73 6.09-9.254 6.913-3.324.79-6.223.133-9.285 1.317-6.98 2.668-6.852 10.965-3.032 12.843l.23.133s2.763-.55 5.49-1.273l.233-.063c1.09-.297 2.16-.617 3.04-.937 4.543-1.68 9.546-5.828 11.195-10.637-.856 5.004-5.172 9.848-9.485 12.05-2.304 1.188-4.082 1.45-7.87 2.767-.462.168-.82.332-.82.332.042-.008.089-.012.136-.02l.094-.012.09-.011c.835-.106 1.585-.157 1.585-.157 5.371-.261 13.801 1.516 17.72-3.718 4.015-5.336 1.776-13.965-.067-19.528zm0 0"/><path style="stroke:none;fill-rule:nonzero;fill:#fff;fill-opacity:1" d="M7.238 25.922c.559.46.66 1.316.2 1.91-.461.594-1.317.66-1.91.2-.594-.462-.66-1.321-.2-1.91.461-.595 1.317-.661 1.91-.2zm21.735-22.39c1.843 5.562 4.082 14.19.066 19.527-3.918 5.234-12.348 3.457-17.719 3.718 0 0-.75.051-1.586.157l-.09.011c-.078.008-.156.02-.23.032 0 0 .36-.165.82-.332 3.79-1.317 5.567-1.579 7.871-2.766 4.313-2.203 8.63-7.047 9.485-12.05-1.649 4.808-6.652 8.956-11.195 10.636-3.13 1.152-8.762 2.273-8.762 2.273l-.23-.133c-3.821-1.878-3.95-10.175 3.03-12.843 3.063-1.184 5.962-.528 9.286-1.317 3.523-.824 7.605-3.457 9.254-6.914zm0 0"/></svg>