<svg xmlns="http://www.w3.org/2000/svg" width="32" height="px" viewBox="0 0 32 32"><defs><linearGradient id="a" gradientUnits="userSpaceOnUse" x1=".5" y1="0" x2=".5" y2="1" gradientTransform="scale(32)"><stop offset="0" style="stop-color:#0091e6;stop-opacity:1"/><stop offset="1" style="stop-color:#0079bf;stop-opacity:1"/></linearGradient></defs><path style="stroke:none;fill-rule:nonzero;fill:url(#a)" d="M3.125 0h25.75A3.124 3.124 0 0 1 32 3.125v25.75A3.124 3.124 0 0 1 28.875 32H3.125A3.124 3.124 0 0 1 0 28.875V3.125A3.124 3.124 0 0 1 3.125 0zm0 0"/><path style="stroke:none;fill-rule:nonzero;fill:#fff;fill-opacity:1" d="M19.578 4.16h6.762a1.5 1.5 0 0 1 1.5 1.5v11a1.5 1.5 0 0 1-1.5 1.5h-6.762a1.5 1.5 0 0 1-1.5-1.5v-11a1.5 1.5 0 0 1 1.5-1.5zM5.66 4.16h6.762a1.5 1.5 0 0 1 1.5 1.5v19a1.5 1.5 0 0 1-1.5 1.5H5.66a1.5 1.5 0 0 1-1.5-1.5v-19a1.5 1.5 0 0 1 1.5-1.5zm0 0"/></svg>