<svg xmlns="http://www.w3.org/2000/svg" width="32" height="px" viewBox="0 0 32 32"><path style="stroke:none;fill-rule:nonzero;fill:#3178c6;fill-opacity:1" d="M4.8 0h22.4A4.8 4.8 0 0 1 32 4.8v22.4a4.8 4.8 0 0 1-4.8 4.8H4.8A4.8 4.8 0 0 1 0 27.2V4.8A4.8 4.8 0 0 1 4.8 0zm0 0"/><path style="stroke:none;fill-rule:nonzero;fill:#fff;fill-opacity:1" d="M14.563 17.75h4v-2.563H7.374v2.563h4v11.438h3.188zm5.25 10.813c.507.261 1.125.457 1.812.585.688.133 1.438.196 2.188.196.75 0 1.437-.07 2.125-.211a5.444 5.444 0 0 0 1.75-.688c.507-.332.937-.75 1.187-1.312.25-.563.445-1.188.445-2 0-.57-.09-1.063-.258-1.5a2.953 2.953 0 0 0-.75-1.125 4.976 4.976 0 0 0-1.125-.875 13.4 13.4 0 0 0-1.5-.75c-.414-.172-.75-.332-1.125-.496a4.685 4.685 0 0 1-.812-.489 2.256 2.256 0 0 1-.531-.523 1.1 1.1 0 0 1-.188-.625c0-.21.055-.406.168-.582.113-.176.27-.316.469-.441.2-.125.45-.22.75-.29.293-.07.621-.101 1-.101.262 0 .539.02.812.059a7.125 7.125 0 0 1 1.75.488c.278.125.532.27.75.433V15.38c-.472-.184-1-.32-1.562-.406a12.23 12.23 0 0 0-1.938-.133c-.75 0-1.437.082-2.125.238a4.947 4.947 0 0 0-1.75.75c-.503.336-.875.75-1.187 1.313-.293.523-.438 1.125-.438 1.875 0 .937.27 1.75.813 2.375.539.687 1.375 1.187 2.437 1.687.434.176.813.348 1.188.52.375.168.687.343.937.523.27.18.48.383.625.594.157.21.239.46.239.75 0 .2-.047.387-.145.562a1.211 1.211 0 0 1-.441.45 2.566 2.566 0 0 1-.75.3c-.297.07-.625.106-1.063.106a5.647 5.647 0 0 1-2-.356c-.687-.238-1.312-.593-1.758-.965zm0 0"/></svg>